# xmcd
#
# Track frame offsets:
#	150
#	11270
#	21916
#	35957
#	51364
#	69940
#	81110
#	91579
#	103694
#	126707
#	139192
#	152351
#
# Disc length: 2186 seconds
# Revision: 0
# Processed by: cddbd v1.5.2PL0 Copyright (c) Steve Scherf et al.
# Submitted via: dBpowerAMP V12.0
#
DISCID=9808880c
DTITLE=Riverrock - Still 'Live and Pickin' [Rockin' W Records] (L)
DYEAR=1977
DGENRE=Bluegrass
TTITLE0=Tear Drops in my Eyes
TTITLE1=Six Pack to go
TTITLE2=I saw the Light
TTITLE3=Lost Road at Midnight
TTITLE4=I Love you now
TTITLE5=Fox on the Run
TTITLE6=Don't let your Deal go Down
TTITLE7=Nashville Cats
TTITLE8=Rollin' in my Sweet Baby's arms
TTITLE9=Gotta get Drunk
TTITLE10=Dark Out-Side
TTITLE11=Another Girl like You
EXTD=
EXTT0=
EXTT1=
EXTT2=
EXTT3=
EXTT4=
EXTT5=
EXTT6=
EXTT7=
EXTT8=
EXTT9=
EXTT10=
EXTT11=
PLAYORDER=
